<svg xmlns="http://www.w3.org/2000/svg" fill="#f15d30" viewBox="0 0 187 185"><path d="M62 7c-15 3-28 10-37 22a122 122 0 00-18 91 74 74 0 0016 38c6 9 14 15 24 18a89 89 0 0024 4 45 45 0 006 0l3-1 13-1a158 158 0 0055-17 63 63 0 0035-52 34 34 0 00-1-5c-3-18-9-33-19-47-12-17-24-28-38-37A85 85 0 0062 7zm30 8c20 4 38 14 53 31 17 18 26 37 29 58v12c-3 17-13 30-28 38a155 155 0 01-53 16l-13 2h-1a51 51 0 01-12-1l-17-2c-13-4-23-12-29-27-5-12-8-24-8-39a133 133 0 018-50c5-13 11-26 26-33 14-7 29-9 45-5zM40 45a94 94 0 00-17 54 75 75 0 006 32c8 19 22 31 42 32 21 2 41-2 60-14a60 60 0 0021-19 53 53 0 009-29c0-16-8-33-23-51a47 47 0 00-5-5c-23-20-45-26-67-18-12 4-20 9-26 18zm108 76a50 50 0 01-21 22c-17 9-32 13-48 13-11 0-21-3-30-9-5-3-9-9-13-16a81 81 0 01-6-32 94 94 0 018-35 90 90 0 016-12l1-2c5-9 13-13 23-16 16-5 32-3 50 9 13 8 23 20 30 36 7 15 7 29 0 42zm-43-73c-17-8-33-6-46 5-10 8-16 20-19 37a54 54 0 005 34c7 15 20 23 37 22 22-1 38-9 48-24a41 41 0 008-24 43 43 0 00-1-12c-6-18-16-31-32-38zm-23 91h-1c-7 0-14-2-21-7a27 27 0 01-10-13 57 57 0 01-4-20 63 63 0 016-25c5-12 12-19 24-21 9-3 18-2 27 2 14 6 23 18 27 33s-2 31-16 40c-11 8-21 11-32 11zm1-34v14h-8V68h8v28l10-10h11l-14 15 17 18H96z"/></svg>
